<svg width="80" height="24" viewBox="0 0 80 24" fill="none" xmlns="http://www.w3.org/2000/svg">
  <g clip-path="url(#clip0_641_14309)">
    <path
      d="M13.6409 23.9173L14.5231 23.2313L6.13616 12.4297L13.3685 4.71081L12.5512 3.94703L1.12053 16.1481V0H0V23.6465H1.12053V17.7827L5.36427 13.2568L13.6409 23.9173Z"
      fill="black"
    />
    <path
      d="M26.1954 20.4745C26.1759 20.4972 24.2641 22.7983 20.2506 22.7983C17.129 22.7983 16.3847 20.5523 16.349 20.4404C15.616 18.4945 17.0187 17.035 17.0836 16.9637C18.616 15.2918 22.7819 14.6188 22.8322 14.6107L23.5733 14.4729C24.0873 14.374 26.4516 13.8794 27.8705 12.9323V16.7026C27.8705 18.7102 26.39 20.2799 26.1954 20.4794V20.4745ZM22.8922 4.78369C18.1895 4.78369 17.2328 6.56748 16.5339 7.86477L16.2955 8.3091L17.2782 8.84423L17.5133 8.39829C18.162 7.17072 18.8495 5.90261 22.8857 5.90261C24.53 5.90261 25.8046 6.33883 26.6592 7.19991C27.8397 8.38045 27.864 10.0264 27.864 10.0426V11.2864C27.864 12.0048 25.4884 12.9648 23.3592 13.3767L22.6392 13.5096C22.4527 13.5388 18.0582 14.2377 16.2647 16.195C16.1852 16.2777 14.3188 18.2269 15.2917 20.8021C15.2917 20.8329 16.2777 23.9188 20.2506 23.9188C24.7197 23.9188 26.8294 21.4669 27.037 21.2123C27.23 21.0194 28.9829 19.1999 28.9829 16.6994V10.0507C28.9829 9.96639 28.9829 7.94261 27.457 6.42153C26.3803 5.33991 24.8414 4.79991 22.8857 4.79991"
      fill="black"
    />
    <path
      d="M33.8478 7.2971C35.1743 5.95277 37.5013 5.87494 37.8159 5.87169H37.8726C42.1342 5.87169 43.1088 8.49061 43.1493 8.60088L43.2499 8.88953L44.3055 8.52142L44.2034 8.23115C44.1547 8.09007 42.9434 4.75439 37.8791 4.75439C37.5645 4.7625 34.7624 4.78196 33.0548 6.50899C32.2002 7.37331 31.7835 8.49385 31.8159 9.8171C31.8159 9.84466 31.704 12.6452 35.1613 13.7187C35.5732 13.842 37.0245 14.2652 38.4126 14.5295C38.4515 14.5376 42.3239 15.1279 42.9093 17.0901C42.9093 17.1112 43.738 19.1755 42.3304 21.1198C41.1191 22.7933 38.2764 22.8079 37.9245 22.8015C37.9018 22.8015 34.8581 22.8015 33.2608 21.1636C32.6413 20.5417 32.1461 19.8076 31.8013 19.0004L31.6813 18.7166L30.6516 19.1544L30.7716 19.4366C31.1708 20.3807 31.7491 21.2385 32.4743 21.9631C34.3213 23.8669 37.5321 23.9204 37.8921 23.9204H38.0364C38.6445 23.9204 41.7531 23.8166 43.2255 21.7733C43.7542 21.053 44.0975 20.2138 44.2256 19.3296C44.3537 18.4453 44.2626 17.5432 43.9601 16.7025C43.1899 14.1079 38.865 13.4593 38.5942 13.4203C37.1348 13.1447 35.5472 12.663 35.4808 12.6436C32.8862 11.8328 32.9365 9.93223 32.9397 9.83169C32.917 8.79061 33.2251 7.93602 33.8559 7.2971"
      fill="black"
    />
    <path
      d="M78.8781 22.7984C76.624 22.7984 74.9862 22.2957 74.036 21.3032C73.5109 20.773 73.2026 20.0656 73.1716 19.32V0H72.0527V19.2973C72.0709 20.3359 72.4891 21.3276 73.2203 22.0654C74.396 23.293 76.3013 23.9141 78.8781 23.9141H79.1846V22.7951L78.8781 22.7984Z"
      fill="black"
    />
    <path
      d="M49.2043 21.3032C48.6786 20.7765 48.3695 20.0716 48.3384 19.3281V5.86865H54.2897V4.74973H48.3384V0H47.2195V19.2973C47.2368 20.3366 47.6552 21.3289 48.387 22.067C49.5643 23.293 51.4681 23.9173 54.0448 23.9173H54.3529V22.7968H54.0448C51.7908 22.7968 50.153 22.2941 49.2027 21.3016"
      fill="black"
    />
    <path
      d="M56.8859 15.7686V11.9999C56.8859 9.99883 58.3664 8.43234 58.5594 8.22477C58.5788 8.20045 60.5053 5.89937 64.5058 5.89937C67.6274 5.89937 68.3717 8.14531 68.4074 8.2572C69.1452 10.2032 67.7393 11.6626 67.6793 11.7275C66.1615 13.3896 62.1074 14.061 61.9242 14.0902L61.1848 14.228C60.6707 14.3269 58.3048 14.8215 56.8859 15.7686ZM64.5074 4.78369C59.8372 4.78369 57.7291 7.47883 57.7291 7.47883C57.5313 7.67504 55.767 9.47991 55.767 11.9999V18.6486C55.8082 20.0063 56.3525 21.3004 57.2945 22.2794C58.3713 23.361 59.9085 23.9091 61.8642 23.9091C66.5669 23.9091 67.5252 22.1253 68.2225 20.828L68.4625 20.3821L67.4798 19.8486L67.2366 20.2994C66.5782 21.5269 65.8988 22.795 61.8642 22.795C60.2199 22.795 58.9453 22.3588 58.0907 21.4977C56.9102 20.3188 56.8859 18.6729 56.8859 18.6567V17.4161C56.8859 16.6977 59.2631 15.7377 61.3923 15.3259L62.1107 15.1929C62.2972 15.1637 66.6933 14.4632 68.4868 12.5075C68.5663 12.4248 70.4328 10.4659 69.4598 7.90207C69.4517 7.87126 68.4447 4.78369 64.4993 4.78369"
      fill="black"
    />
  </g>
  <defs>
    <clipPath id="clip0_641_14309">
      <rect width="79.2965" height="24" fill="white" />
    </clipPath>
  </defs>
</svg>
